/* XPM */
static char *result[] = {
/* columns rows colors chars-per-pixel */
"50 50 66 1 ",
"  c #1DA200",
". c #47A922",
"X c #4FAB32",
"o c #50AB33",
"O c #56AC3E",
"+ c #5BAE45",
"@ c #5EAF49",
"# c #60AF4C",
"$ c #62B04F",
"% c #66B154",
"& c #68B257",
"* c #6CB35C",
"= c #6FB460",
"- c #74B666",
"; c #75B867",
": c #76B769",
"> c #78B76B",
", c #77BA69",
"< c #79BA6C",
"1 c #7EBA71",
"2 c #77C266",
"3 c #7CC36D",
"4 c #7FC571",
"5 c #81BB76",
"6 c #85BD7A",
"7 c #89BE7E",
"8 c #8ABF80",
"9 c #8DC083",
"0 c #90C186",
"q c #94C38B",
"w c #98C58F",
"e c #9AC692",
"r c #9DC896",
"t c #A3CA9C",
"y c #A7CDA0",
"u c #ABCEA5",
"i c #AECFA8",
"p c #ABD0A4",
"a c #AFD0A9",
"s c #B2D2AC",
"d c #B6D4B1",
"f c #BAD6B5",
"g c #BADBB4",
"h c #BED8BA",
"j c #B9E0B2",
"k c #C3DBBE",
"l c #C6DDC2",
"z c #C9DFC6",
"x c #CBDFC8",
"c c #CBE0C7",
"v c #CDE1CA",
"b c #D1E3CE",
"n c #D4E5D1",
"m c #D8E7D5",
"M c #D9E8D6",
"N c #DDEADB",
"B c #E0ECDE",
"V c #E3EEE1",
"C c #E7F0E6",
"Z c #ECF3EB",
"A c #F0F6EF",
"S c #F2F7F1",
"D c #F6F9F5",
"F c #F8FAF7",
"G c #FEFEFE",
"H c None",
/* pixels */
"HHHHHHHHHHHHHHHHHHHHHHHHHHHHHHHHHHHHHHHHHHHHHHHHHH",
"HHHHHHHHHHHHHHHHHHHHHHHHHHHHHHHHHHHHHHHHHHHHHHHHHH",
"HHHHHHHHHHHHHHHHHHHHHHHHHHHHHHHHHHHHHHHHHHHHHHHHHH",
"HHHHHHHHHHHHHHHHHHHHHHHHHHHHHHHHHHHHHHHHHHHHHHHHHH",
"HHHHHHHHHHHHHHHHHHH-----,,-----HHHHHHHHHHHHHHHHHHH",
"HHHHHHHHHHHHHHHH;-<33,,----,,34,;-HHHHHHHHHHHHHHHH",
"HHHHHHHHHHHHHH;,3;;-------------,3;-HHHHHHHHHHHHHH",
"HHHHHHHHHHHH--<;,;:------------;;--3-HHHHHHHHHHHHH",
"HHHHHHHHHHH-4-;*#----;--------------;4-HHHHHHHHHHH",
"HHHHHHHHHH-3;>@tx--:------;;:---------3,HHHHHHHHHH",
"HHHHHHHHH;<->#eGGr&>>;;-,->;:>:->>;;;-><-HHHHHHHHH",
"HHHHHHHH-,&;+eGGs%>=#-*-*;#%:$#:%%;&%-$=3-HHHHHHHH",
"HHHHHHH-4%dZiFGa@>-5y6919*sy%ui&rt%et;y7*4-HHHHHHH",
"HHHHHH-3;%lGGGa@>;+zVwcrzhvihnadBCsVltSq*;3HHHHHHH",
"HHHHHH,-;;+kGa@>-:-wnlzrvm1.Nw xMlfyMrzl%>;-HHHHHH",
"HHHHH-3---:*q&;:-;*dNulVtyNlyNxtbvtzmsNk%>-3,HHHHH",
"HHHHH,-----:*::----:5%:5**55%16%16%1>*7*-----HHHHH",
"HHHH;3------:-------=:-=::==:==>==>--:=:----3-HHHH",
"HHHH-,--------------:--:--::-::-::----------,;HHHH",
"HHHH3---:------------------------------------,HHHH",
"HHH-3;-----------------------------:---------<HHHH",
"HHH-<----------------------------------------4-HHH",
"HHH-,---------------:--------:---------:-:---<;HHH",
"HHH---:--->>>:---:>::>-----:>>>>>:-----------,-HHH",
"HHH;-----:%++*:-;&@&%+------$++++------------,-HHH",
"HHH--;--:%aVNi%>&qNSZl--;--:xBNBM7=:----;----,-HHH",
"HHH-,--;:=nZGx#-wGGnNGV-:>&wGSCZZ8*:---------,-HHH",
"HHH-,---:;&%Gz#&VG>+oiGd@1+lG-+%+-:----------3-HHH",
"HHH-,;-----1Gx+1Fz+1>&FM@>#ZV+&*>::----------3-HHH",
"HHH;3;-----:Gl+151---<Gb@-8GGDVe%:-----:;-;-;3HHHH",
"HHHH<----:->Gx+>*-->+lGe*%dZlnGGt%:-----;----,HHHH",
"HHHH;,---:=;Gx+>::>$tGb#;-7-+O1FS*::--------,-HHHH",
"HHHH-3;----;Gz@>->&9GZ&;::-->1+fG8*>;:---:--3HHHHH",
"HHHHH,---;->Gz@>>*1FF<=;-*-:-;%uGr&>*--=-=---HHHHH",
"HHHHH-3--;->Gx+>-*ZG7&>--81%>1XxG6=-85-8=7;3;HHHHH",
"HHHHHH-;-;-;Fz@>@NGw@;=-*SZ1@+yGM%-8utydahy*HHHHHH",
"HHHHHHH3-;-<Gb+-mGGDFDGvOiGGVZGZ1-*d>eftcpgHHHHHHH",
"HHHHHHH-3--;lt%8zkzzzzvi*%8xVBd--&et#87a9jrHHHHHHH",
"HHHHHHHH-<-;@&--@@@++++%::*@#+#;;-1-;-*%2%HHHHHHHH",
"HHHHHHHHH;<;>--->><><><---:>><>;-:--:-:4,HHHHHHHHH",
"HHHHHHHHHH-3----------------------;---3-HHHHHHHHHH",
"HHHHHHHHHHH-3,---;-----------------;,3-HHHHHHHHHHH",
"HHHHHHHHHHHHH-3;;;----------------,3-HHHHHHHHHHHHH",
"HHHHHHHHHHHHHH-;3<--;--------;--33-HHHHHHHHHHHHHHH",
"HHHHHHHHHHHHHHHHH--333,,;;,,333--HHHHHHHHHHHHHHHHH",
"HHHHHHHHHHHHHHHHHHHH----------HHHHHHHHHHHHHHHHHHHH",
"HHHHHHHHHHHHHHHHHHHHHHHHHHHHHHHHHHHHHHHHHHHHHHHHHH",
"HHHHHHHHHHHHHHHHHHHHHHHHHHHHHHHHHHHHHHHHHHHHHHHHHH",
"HHHHHHHHHHHHHHHHHHHHHHHHHHHHHHHHHHHHHHHHHHHHHHHHHH",
"HHHHHHHHHHHHHHHHHHHHHHHHHHHHHHHHHHHHHHHHHHHHHHHHHH"
};
