/* XPM */
static char *result[] = {
/* columns rows colors chars-per-pixel */
"50 50 207 2 ",
"   c #010101",
".  c #050609",
"X  c #08070B",
"o  c #06080C",
"O  c #090A0E",
"+  c #000211",
"@  c #010C15",
"#  c #0C0D13",
"$  c #01061A",
"%  c #100F15",
"&  c #0E1017",
"*  c #0E1219",
"=  c #17131B",
"-  c #12141C",
";  c #15191F",
":  c #000025",
">  c #00002C",
",  c #0D1520",
"<  c #141721",
"1  c #161923",
"2  c #191B25",
"3  c #1B1E2A",
"4  c #0A0C33",
"5  c #13212C",
"6  c #1D212C",
"7  c #1E2431",
"8  c #22232D",
"9  c #232532",
"0  c #2A2733",
"q  c #242935",
"w  c #2A2935",
"e  c #262B3A",
"r  c #2B2D3A",
"t  c #302B37",
"y  c #322D3A",
"u  c #2E313E",
"i  c #33323E",
"p  c #38333F",
"a  c #142546",
"s  c #2B2F40",
"d  c #2D3243",
"f  c #343444",
"g  c #3B3645",
"h  c #353946",
"j  c #3C3A46",
"k  c #363749",
"l  c #363A4B",
"z  c #3B3B4B",
"x  c #3B3E51",
"c  c #433846",
"v  c #423D4C",
"b  c #423E51",
"n  c #3D404F",
"m  c #3C4253",
"M  c #3E4659",
"N  c #45404F",
"B  c #48434C",
"V  c #50484F",
"C  c #434254",
"Z  c #4B4353",
"A  c #4C4957",
"S  c #444659",
"D  c #4A4659",
"F  c #444A5C",
"G  c #4C4A5B",
"H  c #554A54",
"J  c #524B5B",
"K  c #574A5A",
"L  c #56515E",
"P  c #5B535D",
"I  c #63555D",
"U  c #64595F",
"Y  c #454D62",
"T  c #4A4E62",
"R  c #544E63",
"E  c #4D5165",
"W  c #4D556A",
"Q  c #545264",
"!  c #5B5464",
"~  c #545469",
"^  c #54586C",
"/  c #5B5868",
"(  c #5D5B6C",
")  c #4D5971",
"_  c #555C73",
"`  c #5B5D72",
"'  c #575F79",
"]  c #635664",
"[  c #6A5C64",
"{  c #63576A",
"}  c #645C6C",
"|  c #6B5F6B",
" . c #715E65",
".. c #645E71",
"X. c #6B5D71",
"o. c #59627A",
"O. c #65606E",
"+. c #6C626B",
"@. c #74646C",
"#. c #78666A",
"$. c #636274",
"%. c #6B6373",
"&. c #6D6972",
"*. c #63647B",
"=. c #6C667C",
"-. c #6E6B7C",
";. c #736474",
":. c #756677",
">. c #756A74",
",. c #7B6C75",
"<. c #746B7A",
"1. c #7B6C7B",
"2. c #7D7077",
"3. c #7D717D",
"4. c #8A646D",
"5. c #84706F",
"6. c #826E73",
"7. c #826D79",
"8. c #847376",
"9. c #8B7476",
"0. c #84747C",
"q. c #8B747B",
"w. c #86797C",
"e. c #8C797C",
"r. c #91777E",
"t. c #937D7E",
"y. c #626982",
"u. c #6C6B82",
"i. c #776D84",
"p. c #7B6D82",
"a. c #7C7383",
"s. c #7C798B",
"d. c #7D7F92",
"f. c #847383",
"g. c #8A7485",
"h. c #847A83",
"j. c #8A7A83",
"k. c #857B8C",
"l. c #8C7A8C",
"z. c #937C82",
"x. c #937E8B",
"c. c #837C92",
"v. c #8D7E91",
"b. c #8A828B",
"n. c #938284",
"m. c #9A8382",
"M. c #93838A",
"N. c #9C898B",
"B. c #98888D",
"V. c #848393",
"C. c #8D8495",
"Z. c #88859A",
"A. c #998897",
"S. c #968C9C",
"D. c #98909F",
"F. c #A1858D",
"G. c #A6888C",
"H. c #AA8F95",
"J. c #A78E9D",
"K. c #B58F97",
"L. c #A59393",
"P. c #AB9295",
"I. c #AA9598",
"U. c #A8969B",
"Y. c #B49A97",
"T. c #B3959A",
"R. c #B49E9B",
"E. c #BDA49D",
"W. c #968DA4",
"Q. c #9C95A3",
"!. c #B39DA2",
"~. c #B99AA2",
"^. c #ACA6A9",
"/. c #BAA5A8",
"(. c #BEAEB2",
"). c #C3ADAD",
"_. c #C9AFAE",
"`. c #C6B2AD",
"'. c #C3B2B4",
"]. c #CAB4B3",
"[. c #CBB9B9",
"{. c #D6BBB7",
"}. c #D3C1BD",
"|. c #DDC3BB",
" X c #BDBDC2",
".X c #D4C4C4",
"XX c #DBC7C4",
"oX c #DDCCCC",
"OX c #DDD1D6",
"+X c #E2CBC6",
"@X c #E3D1CC",
"#X c #E9D6CF",
"$X c #E2D3D4",
"%X c #EAD7D5",
"&X c #ECDBD6",
"*X c #E6DBDD",
"=X c #ECDDD9",
"-X c #EFE0DB",
";X c #F3E6DF",
":X c #F2E6E2",
">X c #F4E9E5",
",X c #F5EDEA",
"<X c #F6F0EF",
"1X c #F8F0ED",
"2X c #FBF5F3",
"3X c #FDF8F6",
"4X c #FFFEFC",
/* pixels */
"                                                                                                    ",
"                                                                                                    ",
"                                                                                                    ",
"                                                                                                    ",
"                                                                                                    ",
"                                      . X + X X # o # o . . .                                       ",
"                              . . # & - ; ; = ; - - & & # * # # # .                                 ",
"                          o # - - 1 2 3 8 q q 9 q 9 8 8 0 1 2 1 - * # o .                           ",
"                      o # % < < 3 9 0 q e r r f s y d i f 9 6 8 9 3 < - # #                         ",
"                    o # % < 3 8 8 w e w r r y f k z z l f f r q e q 6 3 < * # .                     ",
"                . . # < < 3 s d l z z x z m z k l l z T R C x d s s e 7 7 2 < # X .                 ",
"                o = < , s x x D Q R { { ! ] ! ! Q S z z ~ y.E F x h l u r e 2 1 & o .               ",
"            . o ; @ 5 Y ~ R R R =.Z.W.W.x.1.<.1.>.$.$.E l S ` ^ W M l x k f e 3 2 - #               ",
"            o - @ j ..~ b T u.c.v.A.J.l.g.l.7.p.1.<.a.s...M z T W E M M m f d q 6 1 - # .           ",
"        . . % * k { D x u.v.v.v.f.:.] [ +.%.2.<.,.,.3.s.k.s.~ k S ^ _ Y m m k d e 6 < - .           ",
"        . # * e b c b Z.W.c.i...L Z R R L H K ] { | ,.3.,.k.k.` C F *.' M M n f s e 6 3 # .         ",
"      . X # 7 T b x i.Z.<.%.! Z ! -.s.p.1.1.a.:.&.! P @.3.>.j.V.( C E *.^ F S z h d 7 7 ; X .       ",
"      X % , g Z x ..l.X.( { { 1.g.:.:.<.,.,.7.f.g.,.P K +.<.@.k.d.` C o.o.W F v l l s 9 < O .       ",
"      O # 9 b S R p.X.! L P p.p.;.} [ | } +.@.@. .@. .] [ >.&.,.S.d.L T u.` Y m z x l s 3 # o       ",
"    . O & f b Z X.u.G J Z ;.p.| I I %.[ [ @.@.#.7.0.1.@.U +.<.[ h.S.-.F $.*.W F j D M k 3 & % .     ",
"    . O 2 z b Z { R J b X.1.! H I 1.l.g.x.J.D.M.M.l.q.g.#.+.,.<. .A.V./ ( o.W T z S T x 9 - & .     ",
"    . % 9 R v Z R R Z b X.( V P 7.x.r.z.F.G.F.G.J.J.B.A.M.@.>.w.+.0.S.&.( =.) T z C _ S i * - o     ",
"    O . g ! c Z J Z c { *.V ] 7.q.g.9.q.n.n.m.G.K.R.P.!.U.9.#.,.0.>.S.s.! O.) E z S *.E B + < .     ",
"  . O . b Z t v T v c { ] H 7.4.#.6.q.9.9.9.t.N.P.H.H.~.T.N.e.2.0.>.B.C./ ~ o.W z T *.%.p . ; o .   ",
"    O = K c 0 v G v j / J >.,.#.b.n.n.m.m.m.m.m.t.F.L.L.Y./.J.j.h.8.M.D.( E o.E z ..u.O.# 3 - o .   ",
"  . o = K k 0 g D v v Q L <.,.w.n.N.L.L.E.Y.Y.Y.P.G.N.R.R.R.!.M.0.e.g.Q.( E o.T Z ..p.j @ 6 - # .   ",
"  . O # Z v 0 i S N c J ] ,.,.j.n.N.L.R.E.`.].E.`.`.Y.L.~.~.T.N.0.n.n.Q./ $.o.! A i.%.@ 7 3 - o .   ",
"    O . Z j 9 f C Z c b ! a.2.j.t.L./.'.].}..X|.{.|.{.E./.)./.I.w.n.b.S.L o.( J ] g.f 2 7 3 * o .   ",
"    X . g c 8 i N v z Z ( >.2.w.w.L.(..XoX*X@X%X#X+XoX.X).(.).R.e.n.M.C.D ` Q G 1.! 5 e 6 < # o .   ",
"    . . t g 8 t j Z z g E @.2.2.5.U.}.OX%X%X%X:X1X;X%XoX[.)._.(.z.t.A.3.Y ` G %.%.e q 9 3 * # . .   ",
"      . 8 i 9 9 g C v w m $.@.+.#.L.(.XX+X=X,X1X1X1X,X@X$X[.].'.N.9.M.( ^ G +.p.m e 9 6 2 & . .     ",
"      . = i 8 8 f C g r r T +.+.P m.`.|.|.+X=X1X3X3X3X%X%XoX].'.n.t.>.E E $.a.G q 9 9 3 & # . .     ",
"      .   g w 2 r C j f e k Q } H ,.].{.XX&X;X,X3X4X3X>X-XOX{.(.n.0.~ F %.f.D 7 w 9 2 - # o o       ",
"      .   8 y ; 8 h m r f 0 C ! ! V E.{.oX>X,X2X4X4X4X1X-X$X.X/.5.E E +.X.x q e 7 2 - # O o o       ",
"          o 3 2 3 r l l w h r v R G | E.-X>X,X2X4X4X4X3X:X%X{.9.A o.-./ d e e 7 3 < # @ + o         ",
"          . % = ; 8 u x f w k y k G M J ^.*X3X4X4X4X4X4X<X.XA.^ %.( z 7 e e 9 3 < # # # o .         ",
"            . # % 6 w d l r 9 i w r D T a G b.^. X X X^.V.W M D h r d d e 7 2 - & # # . .           ",
"            . . O * 8 w u d e 6 0 w 0 f C z 4 $ : > : > a l l d l z s 7 2 < * * # # o . .           ",
"                . O ; w w q e q 9 3 t f 0 w i h h h n n h d r e 7 3 2 1 < * * # o o . .             ",
"                  . O & w q 8 7 6 3 3 8 w 0 8 6 6 6 6 7 5 3 3 < - - * * # # # o o .                 ",
"                    . . O 2 8 8 6 ; ; 1 6 6 8 9 q 7 6 6 3 < - * & & & O # # o . .                   ",
"                      . . . % = 2 6 ; ; ; - ; ; 1 2 1 1 < < - - * & & & o X . .                     ",
"                          .   O % ; ; ; * & - & * * * * * - * & & # O . . .                         ",
"                                . . O & & & & # & & # # # O # X X . . .                             ",
"                        .           . .   . O O o o . . . . . . .                                   ",
"                                          .   .   .                                                 ",
"                                        .                                                           ",
"                                                                                                    ",
"                                                                                                    ",
"                                                                                                    "
};
