/* XPM */
static char *result[] = {
/* columns rows colors chars-per-pixel */
"50 50 75 1 ",
"  c #B20000",
". c #B90000",
"X c #BC0010",
"o c #BD0023",
"O c #BE0C2F",
"+ c #BF2B3E",
"@ c #C12D40",
"# c #C23D4B",
"$ c #C24551",
"% c #C34954",
"& c #C44D58",
"* c #C5535D",
"= c #C55760",
"- c #CE5761",
"; c #C65A63",
": c #CE5C65",
"> c #C65F68",
", c #D35C66",
"< c #D35F68",
"1 c #C7636A",
"2 c #C8666D",
"3 c #C9686F",
"4 c #D5666E",
"5 c #C96A71",
"6 c #D56770",
"7 c #D26F76",
"8 c #CA7077",
"9 c #CB737A",
"0 c #CC797E",
"q c #D67077",
"w c #D77279",
"e c #D9747C",
"r c #D9787F",
"t c #E1777F",
"y c #CE7D82",
"u c #E67981",
"i c #CF8187",
"p c #CF8489",
"a c #D0868B",
"s c #D18A8E",
"d c #D9888D",
"f c #D38E92",
"g c #D49296",
"h c #D59599",
"j c #DD979B",
"k c #D6999D",
"l c #D79EA1",
"z c #D89EA1",
"x c #D9A3A6",
"c c #DAA6A9",
"v c #DBAAAC",
"b c #DDAEB1",
"n c #DFB4B6",
"m c #DFB5B8",
"M c #E0B6B8",
"N c #E2BABC",
"B c #E3BEC0",
"V c #E5C2C4",
"C c #E6C6C8",
"Z c #E7C9CB",
"A c #E9CCCE",
"S c #EACFD0",
"D c #EBD3D4",
"F c #EDD7D8",
"G c #EEDADC",
"H c #F0DEDF",
"J c #F0DFE0",
"K c #F2E2E3",
"L c #F4E7E8",
"P c #F6EBEC",
"I c #FBEFEF",
"U c #F8EFF0",
"Y c #FBF5F5",
"T c #FFFEFE",
"R c None",
/* pixels */
"RRRRRRRRRRRRRRRRRRRRRRRRRRRRRRRRRRRRRRRRRRRRRRRRRR",
"RRRRRRRRRRRRRRRRRRRRRRRRRRRRRRRRRRRRRRRRRRRRRRRRRR",
"RRRRRRRRRRRRRRRRRRRRRRRRRRRRRRRRRRRRRRRRRRRRRRRRRR",
"RRRRRRRRRRRRRRRRRRRRRRRRRRRRRRRRRRRRRRRRRRRRRRRRRR",
"RRRRR5555995555555855555555585555933555555555RRRRR",
"RRRRR5u7w4,wwwwwww66eewewwew4www74www7wwwwe7u5RRRR",
"RRRRR555;kc>555551ay155;2535g552ys3355555555q5RRRR",
"RRRRR5w1iUm195550&DM*95ky52aK58;vF&988559555w5RRRR",
"RRRRR5w;hF+5$&33*oSvo;5Sh;#5K9;OkF*;%;5=%*55w5RRRR",
"RRRRR3w*cUk0VN29mbASVk;k50BVK;gVAD#xAs2xBb15w5RRRR",
"RRRRR5w*vUcJCGAhTcSPNPgGhGAFPiPNPDhPAPpUZLx=e5RRRR",
"RRRRR30;hAkJ.1KbS.Sn ZVVnKX3DNF zZCPNKlG%ZM%e5RRRR",
"RRRRR5e*lK0PcVFxJoFKgPxFxKnVPhPkJFbLlDfL1DN%u5RRRR",
"RRRRR5w2pm*xGDyan&cZGN;n9gFSN;bGZb;BGM5N2vh;w5RRRR",
"RRRRR3q52;5;=*15;8>*;*5;3;;**5*;=;3=;*5;5>15w5RRRR",
"RRRRR555555855555555585558558385555855555555w5RRRR",
"RRRRR575555255255555555555555555555555555355w5RRRR",
"RRRRR375555555555555555555585355555555355555w5RRRR",
"RRRRR575555555555555555555555535555553552535w5RRRR",
"RRRRR375555555555555555555555555555555555555w5RRRR",
"RRRRR575525555555855585585555585555555555555w5RRRR",
"RRRRR57555555555;*;;===;==;=====;=;555555525w5RRRR",
"RRRRR5q255555551ZJGGGGGGGGGGGGGGGGD925555555w2RRRR",
"RRRRR3q555555555YTTTTTTTTTTTTTTTTTTy15555555w5RRRR",
"RRRRR3q555355555PTYTTTTTTTTTTYTTTTYy25555355w5RRRR",
"RRRRR55555555335PTTTTTTTTTTTTTTTTTYy25555555w5RRRR",
"RRRRR5w535535533PTTTYKTTTTTTTLUTTTTy15555535w5RRRR",
"RRRRR3q555555533PTTTTxSTTTTTGhYTTTYy15553555w5RRRR",
"RRRRR3q553555555ITTTTTlATTTGgYTTTTYy25355553w5RRRR",
"RRRRR58555555525PTTTTTTlATGgYTTTTTYy25555555w5RRRR",
"RRRRR37555555555PTTTTTTTvmcYTTTTTTYy25555555w5RRRR",
"RRRRR3753555555;KTTTTTTTJ@ATTTTTTTU825535535w5RRRR",
"RRRRR5q55553558*FTTTTTTHkYcATTTTTTK155555555w5RRRR",
"RRRRR3q55355535*NTTTTTJhYTTkDTTTTTA*55555555w5RRRR",
"RRRRR5q55535555>hTTTTGhYTTTTkDTTTTv*55535555w5RRRR",
"RRRRR555555555532PTTYcYTTTTTTvPTTY0255555555w5RRRR",
"RRRRR5q355555558&BTTTTTTTTTTTTTTTS*555555555w5RRRR",
"RRRRR3q55553555510YTTTTTTTTTTTTTTf>555555535w5RRRR",
"RRRRR5q5555555539&NTTTTTTTTTTTTTZ&9355555555w5RRRR",
"RRRRR5835355555555;KTTTTTTTTTTTI535555553555w5RRRR",
"RRRRR37555555535351iYTTTTTTTTTTh;5355555555575RRRR",
"RRRRR57555555555538;hTTTTTTTTTc&855535555555w5RRRR",
"RRRRR575555355555558*kTTTTTTTv*8555555355353w5RRRR",
"RRRRR5e7777777777777e:aITTTYj-e7qq77778q7777t5RRRR",
"RRRRR55555553535535559;>ATG5=93535355535555555RRRR",
"RRRRRRRRRRRRRRRRRRRRRRRRRRRRRRRRRRRRRRRRRRRRRRRRRR",
"RRRRRRRRRRRRRRRRRRRRRRRRRRRRRRRRRRRRRRRRRRRRRRRRRR",
"RRRRRRRRRRRRRRRRRRRRRRRRRRRRRRRRRRRRRRRRRRRRRRRRRR",
"RRRRRRRRRRRRRRRRRRRRRRRRRRRRRRRRRRRRRRRRRRRRRRRRRR",
"RRRRRRRRRRRRRRRRRRRRRRRRRRRRRRRRRRRRRRRRRRRRRRRRRR"
};
