/* XPM */
static char *result[] = {
/* columns rows colors chars-per-pixel */
"50 50 226 2 ",
"   c black",
".  c #0D121D",
"X  c #360F00",
"o  c #28221B",
"O  c #001426",
"+  c #32393B",
"@  c #322A2E",
"#  c #462215",
"$  c #6B3D33",
"%  c #64372F",
"&  c #513230",
"*  c #7B4310",
"=  c #5B4E3E",
"-  c #72553A",
";  c #6B483B",
":  c #173646",
">  c #3A4243",
",  c #51504D",
"<  c #7E4E47",
"1  c #7D5D41",
"2  c #615B55",
"3  c #7A595C",
"4  c #6A544B",
"5  c #746259",
"6  c #485966",
"7  c #5B666F",
"8  c #757370",
"9  c #843D00",
"0  c #864906",
"q  c #934A04",
"w  c #975706",
"e  c #8E5619",
"r  c #985A1B",
"t  c #9B601D",
"y  c #A9681B",
"u  c #B0701B",
"i  c #885523",
"p  c #975F29",
"a  c #9D6322",
"s  c #9D6737",
"d  c #AB6D24",
"f  c #A56C2D",
"g  c #AA6D2B",
"h  c #A16725",
"j  c #AD712E",
"k  c #AE7026",
"l  c #B2752A",
"z  c #A56935",
"x  c #AA7332",
"c  c #AA763C",
"v  c #B27634",
"b  c #B57A34",
"n  c #BA7E3A",
"m  c #825F43",
"M  c #826245",
"N  c #8A6A4C",
"B  c #936A48",
"V  c #98724A",
"C  c #976655",
"Z  c #8A725D",
"A  c #957353",
"S  c #9B7455",
"D  c #9C7D5B",
"F  c #9C7855",
"G  c #876F52",
"H  c #A97B48",
"J  c #B47F43",
"K  c #A27D5C",
"L  c #A67A52",
"P  c #887969",
"I  c #967C68",
"U  c #8C7871",
"Y  c #997976",
"T  c #8F6569",
"R  c #A4797B",
"E  c #A27E60",
"W  c #BC823D",
"Q  c #B6813E",
"!  c #C3853D",
"~  c #C68636",
"^  c #BC8443",
"/  c #B98448",
"(  c #AA8459",
")  c #B38550",
"_  c #9A837B",
"`  c #9C856B",
"'  c #AC8C66",
"]  c #AC8C6A",
"[  c #A68666",
"{  c #B38B6D",
"}  c #B08B66",
"|  c #B2916E",
" . c #BA956B",
".. c #A88975",
"X. c #B48C78",
"o. c #AD9376",
"O. c #B49571",
"+. c #BB9A75",
"@. c #BC9D7B",
"#. c #B59879",
"$. c #AD9069",
"%. c #BFA17D",
"&. c #C28945",
"*. c #C58B4A",
"=. c #CB8E4C",
"-. c #C78A44",
";. c #CC914C",
":. c #D3954E",
">. c #C58C51",
",. c #CC9354",
"<. c #CB965B",
"1. c #D29654",
"2. c #D39955",
"3. c #D39A5A",
"4. c #D99E5E",
"5. c #D59856",
"6. c #E09844",
"7. c #DAA15E",
"8. c #E4A55C",
"9. c #C89862",
"0. c #D49E61",
"q. c #D99F60",
"w. c #C29B7C",
"e. c #C39B79",
"r. c #DBA264",
"t. c #DDA669",
"y. c #D5A56C",
"u. c #C2A37D",
"i. c #C9A479",
"p. c #DBA972",
"a. c #D5AA76",
"s. c #D3B37F",
"d. c #E1A663",
"f. c #E2AB6C",
"g. c #E2A966",
"h. c #E2AE71",
"j. c #E9B475",
"k. c #EBB97C",
"l. c #E9B57B",
"z. c #F2BC7B",
"x. c #F8BD76",
"c. c #7C8A95",
"v. c #7F8D96",
"b. c #76A4C8",
"n. c #988C85",
"m. c #94908D",
"M. c #989A9B",
"N. c #8B8E96",
"B. c #A99886",
"V. c #AA9C90",
"C. c #B9A28A",
"Z. c #ACA39A",
"A. c #B7A496",
"S. c #8898A9",
"D. c #959DA5",
"F. c #9BA4AC",
"G. c #98A0A8",
"H. c #9AA8B5",
"J. c #8EA6B9",
"K. c #ACA8A5",
"L. c #B8ACA4",
"P. c #A8ADB2",
"I. c #A9B3BC",
"U. c #B8B9B8",
"Y. c #BBB3AA",
"T. c #C89D81",
"R. c #C6A583",
"E. c #CBA483",
"W. c #CAA985",
"Q. c #CCA48A",
"!. c #CCAD8B",
"~. c #C5A787",
"^. c #D1A98C",
"/. c #CDB08D",
"(. c #D2B28D",
"). c #D8B789",
"_. c #C5AD91",
"`. c #CCAF91",
"'. c #D4AB92",
"]. c #D3B592",
"[. c #D7B895",
"{. c #DBBB94",
"}. c #DBBD9B",
"|. c #D7B795",
" X c #CFB291",
".X c #E5BC88",
"XX c #C9B7A6",
"oX c #D8BDA1",
"OX c #C5BDB5",
"+X c #DFC09F",
"@X c #EAC18B",
"#X c #F5C58A",
"$X c #F8C788",
"%X c #E3C395",
"&X c #E2C39D",
"*X c #E9C99D",
"=X c #F6CD94",
"-X c #F5CB97",
";X c #FBD498",
":X c #FFD18E",
">X c #DFC1A1",
",X c #D5C6B7",
"<X c #E3C5A3",
"1X c #E6CAA9",
"2X c #E9CDAC",
"3X c #E4C8A7",
"4X c #F8D5A7",
"5X c #E7CEB5",
"6X c #EDD1B3",
"7X c #ECD4BB",
"8X c #E7D0B8",
"9X c #F1D5B6",
"0X c #F2D7B8",
"qX c #F4D9BA",
"wX c #EDD0AF",
"eX c #A9B6C3",
"rX c #BFC3CA",
"tX c #CACACB",
"yX c #D6CDC4",
"uX c #DDD3C8",
"iX c #D2D4D5",
"pX c #EBDAC8",
"aX c #F6DCC3",
"sX c #E2D9D0",
"dX c #F8E0CA",
"fX c None",
/* pixels */
"fXfXfXfXfXfXfXfXfXfXfXfXfXfXfXfXfXfXfXfXfXfXfXfXfXfXfXfXfXfXfXfXfXfXfXfXfXfXfXfXfXfXfXfXfXfXfXfXfXfX",
"fXfXfXfXfXfXfXfXfXfXfXfXfXfXfXfXfXfXfXfXfXfXfXfXfXfXfXfXfXfXfXfXfXfXfXfXfXfXfXfXfXfXfXfXfXfXfXfXfXfX",
"fXfXfXfXfXfXfXfXfXfXfXfXfXfXfXfXfXfXfXfXfXfXfXfXfXfXfXfXfXfXfXfXfXfXfXfXfXfXfXfXfXfXfXfXfXfXfXfXfXfX",
"fXfXfXfXfXfXfXfXfXfXfXfXfXfXfXfXfXfXfXfXfXfXfXfXfX/ fXfXfXfXW fXfXfXfXfXfXfXfXfXfXfXfXfXfXfXfXfXfXfX",
"fXfXfXfXfXfXfXfXfXfXfXfXfXfXfXfXfXfXfXfXfXfXfXy.4.:.a fXQ ~ k ! x fXfXfXfXfXfXfXfXfXfXfXfXfXfXfXfXfX",
"fXfXfXfXfXfXfXfXfXfXfXfXfXfXfXfXfXfXfXfXs.@X:Xx.:.~ j v y g :.:.j fXfXfXfXfXfXfXfXfXfXfXfXfXfXfXfXfX",
"fXfXfXfXfXfXfXfXfXfXfXfXfXfXfXfXfXfX).=X;X:Xx.7.~ b w r >.8.g.2.d i b fXfXfXfXfXfXfXfXfXfXfXfXfXfXfX",
"fXfXfXfXfXfXfXfXfXfXfXfXfXfXfXfXfX@X;X;X:Xk.7.-.u d *.j.z.$X@X;.b a n fXfXfXfXfXfXfXfXfXfXfXfXfXfXfX",
"fXfXfXfXfXfXfXfXfXfXfXfXfXfXfXy.:X;X=X=X.Xf.&.u 1.k.$X$X=X4Xf.=.&.g ~ J fXfXfXfXfXfXfXfXfXfXfXfXfXfX",
"fXfXfXfXfXfXfXfXfXfXfXfXJ v L $X$X$X=X-Xx.*.v l.;X=X=X-X4Xj.4.3.<.v ~ &.fXfXfXfXfXfXfXfXfXfXfXfXfXfX",
"fXfXfXfXfXfXfXfXfXfXfXfX=.d 3.k..X$X-X#X4.l .X;X;X=X;X4Xk.f.t.r.4.n W 8.H fXfXfXfXfXfXfXfXfXfXfXfXfX",
"fXfXfXfXfXfXfXfXfXfXfX/ 5.d <.f.f.k.-Xl.&.>.$X-X-X$X4X-Xf.h.t.r.r.W ! g.<.e x fXfXfXfXfXfXfXfXfXfXfX",
"fXfXfXfXfXfXfXfXfXfXfX5.:.d / 3.5.h..Xf.J >.x.-X.X$X9Xj.f.f.t.t.r.b =.f.h.t ~ fXfXfXfXfXfXfXfXfXfXfX",
"fXfXfXfXfXfXfXfXfXfXx 5.3.j g ^ &.>.a.q.! J d..Xz..X*Xg.d.t.t.r.0.b 2.p..Xx ! ^ fXfXfXfXfXfXfXfXfXfX",
"fXfXfXfXfXfXfXfXfXfXx 1.0./ r f g j ) =.! d &.p.d.f.p.q.q.q.q.f.,.b 4.h..Xx *.:.fXfXfXfXfXfXfXfXfXfX",
"fXfXfXfXfXfXfXfXfXfXf ,.a.9.k 0 9 9 0 i s p 9 w d g J ! =.=.=.*.v 1.f.l.i.g 0.8.f fXfXfXfXfXfXfXfXfX",
"fXfXfXfXfXfXfXfXfXfXj ,.y.i.u V O.@.!.].+X+X_.@.] [ S S L L L L H W *.9.s c p.g.x fXfXfXfXfXfXfXfXfX",
"fXfXfXfXfXfXfXfXfXfXg 2.0. .) (.{.&X3X2XwX6X0XqXqX9X0X6X2X2X1X3X[.@.L i w 9.p.7.x fXfXfXfXfXfXfXfXfX",
"fXfXfXfXfXfXfXfXfXfXh 2.,.) u.(.|.}.3X1X6X6X6X0X0XqX0X0X9X6X2X1X<X&X{.u.H <.p.7.b fXfXfXfXfXfXfXfXfX",
"fXfXfXfXfXfXfXfXfXfXa 2.W ( u.!.|.}.3X1X6X0X0X0X0XqXqX0X9X6XwX2X<X+X(./.+.) r.3.j fXfXfXfXfXfXfXfXfX",
"fXfXfXfXfXfXfXfXfXfXt ,.^ $.W.!.{.}.<X3X2X6X9X0XqXqXqX0X9X6X2X2X>X}.].W.@.) 5.3.a fXfXfXfXfXfXfXfXfX",
"fXfXfXfXfXfXfXfXfXfXr *./ +.W.!.{.}.<X<X1X2X6X6X0X0X7X6X6X2X3X<X>X{.(.W.%.' 2.<.e fXfXfXfXfXfXfXfXfX",
"fXfXfXfXfXfXfXfXfXfXe ^ ) %.u./.{.%X*X*X&X<X3X2X6X6X6X2X3X<X<X<X+X}.(.W.%.' <.;.0 fXfXfXfXfXfXfXfXfX",
"fXfXfXfXfXfXfXfXfXfXe b ( %.u.(.%X%X{.{.{.[.}.>X3X1X3X>X}.}.%X%X%X%X).R.@.' 2.^ * fXfXfXfXfXfXfXfXfX",
"fXfXfXfXfXfXfXfXfXfXi d ) +.~.]. X+X{./.u.~./.[.oX<X}.]./.W.!././.{.).u.%.' *.k * fXfXfXfXfXfXfXfXfX",
"fXfXfXfXfXfXfXfXfXfXe c N.G.F.H.I.U.OXXX_.i.u./.[.[.].W.u.u.W.).{.).).i.+.' c t fXfXfXfXfXfXfXfXfXfX",
"fXfXfXfXfXfXfXfXfXfX0 n.b.C._._.C.m.m.M.F.F.C.).}.{.^.i.C.A.Y.U.U.U.Y.K.B.( f e fXfXfXfXfXfXfXfXfXfX",
"fXfXfXfXfXfXfXfXfXfXfXP F.C.C.D 4 2 , 2 Z n.S.L.XXXX_.G.G.M.m.m.Z.K.L.Z.G.v.F 0 fXfXfXfXfXfXfXfXfXfX",
"fXfXfXfXfXfXfXfXfXfXu._ G.#.` 8 v.U., 6 D.` ..J.Z.K.J.n.D P 7 = = G @.W.@.b.N.9 fXfXfXfXfXfXfXfXfXfX",
"fXfXfXfXfXfXfXfXfX[ +.I J.%.K.iXv.O   O I.U.n.G.i./.F.` Z.J.I., 6 7 4 B.C.G.3 fXfXfXfXfXfXfXfXfXfXfX",
"fXfXfXfXfXfXfXfXfX .$.V D.,X2X,XY._ 5 v.tXuXJ.C.[.(.M.M.iXv..   : eXY.U ~.S.I o.fXfXfXfXfXfXfXfXfXfX",
"fXfXfXfXfXfXfXfXfXfX( G o.I.,X9X8X7X8X8X5XtXK.(.6X2XC.I.sXP.P 8 m.tXsX[.OXS.L ] fXfXfXfXfXfXfXfXfXfX",
"fXfXfXfXfXfXfXfXfXfXz A O.#.H.iXpXaX7X6XyXI.W.}.<X2X|.D.yX5X8XpXaXaX7XpXeXU V } fXfXfXfXfXfXfXfXfXfX",
"fXfXfXfXfXfXfXfXfXfXV A O.E.e.M.eXtXtXrXeXQ.].|.{.(.}.C.eXpXqXaXaXpXtXI.B.B L B fXfXfXfXfXfXfXfXfXfX",
"fXfXfXfXfXfXfXfXfXfXfX- { Q.'.w.w.A.Y.L.Q.|.^.!.qX(.!.}.A.eXtXtXtXI.K.@. .A z fXfXfXfXfXfXfXfXfXfXfX",
"fXfXfXfXfXfXfXfXfXfXfXfXC e.'.'.'.E.E.E.|.3XQ.D @.[ u.1X`.T.XXL.A.T.e.e.] B B fXfXfXfXfXfXfXfXfXfXfX",
"fXfXfXfXfXfXfXfXfXfXfXfXN { T.Q.'.'.!.].<X3X<X~.[ #.}.}.>X^.E.w.T.T.Q.T.C fXfXfXfXfXfXfXfXfXfXfXfXfX",
"fXfXfXfXfXfXfXfXfXfXfXfXfXK X.w.R.T.] o.Q.|.oX5X9X2X<X&X{.(.R.Q.'.Q.T.{ M fXfXfXfXfXfXfXfXfXfXfXfXfX",
"fXfXfXfXfXfXfXfXfXfXfXfXfXM E e.R.!.T.4 @ 3 U U Y ..Y Y Z A  .R.T.e.{ C fXfXfXfXfXfXfXfXfXfXfXfXfXfX",
"fXfXfXfXfXfXfXfXfXfXfXfXfXfXC E @. X<X..  o @ + > > + .   R  XR.w.X.K m fXfXfXfXfXfXfXfXfXfXfXfXfXfX",
"fXfXfXfXfXfXfXfXfXfXfXfXfXfX- L } W.<X`.3 X $ < % % #   4 |.>XW.O.K m fXfXfXfXfXfXfXfXfXfXfXfXfXfXfX",
"fXfXfXfXfXfXfXfXfXfXfXfXfXfXfX- F $.(.(.X.T < C C < & T B.[.]. .K m fXfXfXfXfXfXfXfXfXfXfXfXfXfXfXfX",
"fXfXfXfXfXfXfXfXfXfXfXfXfXfXfXfX- A | !.u.X.R R R Y R ..T.Q.| F M fXfXfXfXfXfXfXfXfXfXfXfXfXfXfXfXfX",
"fXfXfXfXfXfXfXfXfXfXfXfXfXfXfXfXfXfXN | +.O.| X.X.R ] O.@.} A - fXfXfXfXfXfXfXfXfXfXfXfXfXfXfXfXfXfX",
"fXfXfXfXfXfXfXfXfXfXfXfXfXfXfXfXfXfXfXM [ ] ] $.} ' ' ' K M fXfXfXfXfXfXfXfXfXfXfXfXfXfXfXfXfXfXfXfX",
"fXfXfXfXfXfXfXfXfXfXfXfXfXfXfXfXfXfXfXfXfXN A ( K K N M fXfXfXfXfXfXfXfXfXfXfXfXfXfXfXfXfXfXfXfXfXfX",
"fXfXfXfXfXfXfXfXfXfXfXfXfXfXfXfXfXfXfXfXfXfXfXfX1 fXfXfXfXfXfXfXfXfXfXfXfXfXfXfXfXfXfXfXfXfXfXfXfXfX",
"fXfXfXfXfXfXfXfXfXfXfXfXfXfXfXfXfXfXfXfXfXfXfXfXfXfXfXfXfXfXfXfXfXfXfXfXfXfXfXfXfXfXfXfXfXfXfXfXfXfX",
"fXfXfXfXfXfXfXfXfXfXfXfXfXfXfXfXfXfXfXfXfXfXfXfXfXfXfXfXfXfXfXfXfXfXfXfXfXfXfXfXfXfXfXfXfXfXfXfXfXfX",
"fXfXfXfXfXfXfXfXfXfXfXfXfXfXfXfXfXfXfXfXfXfXfXfXfXfXfXfXfXfXfXfXfXfXfXfXfXfXfXfXfXfXfXfXfXfXfXfXfXfX"
};
