/* XPM */
static char *result[] = {
/* columns rows colors chars-per-pixel */
"50 50 215 2 ",
"   c black",
".  c #180000",
"X  c #0D0017",
"o  c #28141C",
"O  c #380500",
"+  c #0C2E3B",
"@  c #43261F",
"#  c #673C32",
"$  c #7F4100",
"%  c #583D41",
"&  c #735451",
"*  c #76624C",
"=  c #687178",
"-  c #6E6C6B",
";  c #8A4B00",
":  c #9A5707",
">  c #94561D",
",  c #985B19",
"<  c #A45F16",
"1  c #A3640D",
"2  c #A3631D",
"3  c #A66718",
"4  c #AF701D",
"5  c #885F3B",
"6  c #9C6129",
"7  c #93643B",
"8  c #AD6E25",
"9  c #A26629",
"0  c #A96E2A",
"q  c #A66923",
"w  c #AD722B",
"e  c #A97127",
"r  c #B2742B",
"t  c #B6762B",
"y  c #A66C37",
"u  c #AB7234",
"i  c #A8753B",
"p  c #B57B35",
"a  c #BA7C33",
"s  c #B57B39",
"d  c #B97D3A",
"f  c #B47636",
"g  c #88554C",
"h  c #856444",
"j  c #8D6B4B",
"k  c #886748",
"l  c #946D4B",
"z  c #8F714F",
"x  c #99734C",
"c  c #84605E",
"v  c #966857",
"b  c #957453",
"n  c #997554",
"m  c #997A59",
"M  c #A47748",
"N  c #A17C5C",
"B  c #A96E43",
"V  c #887765",
"C  c #9A7F64",
"Z  c #9C7170",
"A  c #A47B60",
"S  c #A67878",
"D  c #BB813C",
"F  c #C2843C",
"G  c #C68537",
"H  c #DB943C",
"J  c #BB8343",
"K  c #B8844A",
"L  c #A68258",
"P  c #B58958",
"I  c #B78956",
"U  c #978371",
"Y  c #9C866E",
"T  c #A98563",
"R  c #AC8B65",
"E  c #AD8C69",
"W  c #A48263",
"Q  c #B28C67",
"!  c #AE916C",
"~  c #B6936B",
"^  c #A98977",
"/  c #B58D75",
"(  c #AD9378",
")  c #B39573",
"_  c #BA9576",
"`  c #B79974",
"'  c #BA9A76",
"]  c #B2917A",
"[  c #B69B7D",
"{  c #BD9D7A",
"}  c #BEA07E",
"|  c #C58A43",
" . c #C38A4C",
".. c #CA8D49",
"X. c #C58945",
"o. c #D7964B",
"O. c #C28F57",
"+. c #CD9453",
"@. c #C99559",
"#. c #D59B5B",
"$. c #D69A58",
"%. c #CF9048",
"&. c #DCA25B",
"*. c #E2A35B",
"=. c #CA9A65",
"-. c #D89F62",
";. c #C59B7B",
":. c #DCA464",
">. c #DDA66A",
",. c #D8A56A",
"<. c #C2A27D",
"1. c #CCA679",
"2. c #D9AB75",
"3. c #DFB27F",
"4. c #E1A664",
"5. c #E1AA6C",
"6. c #E4AA69",
"7. c #E5AE71",
"8. c #E6B174",
"9. c #EDB676",
"0. c #E4B37B",
"q. c #EBB87C",
"w. c #F1BB7A",
"e. c #FFC67E",
"r. c #607686",
"t. c #B07F83",
"y. c #7991AA",
"u. c #659DC9",
"i. c #73A5CE",
"p. c #979597",
"a. c #908E8E",
"s. c #AB9782",
"d. c #B69B85",
"f. c #A69B91",
"g. c #B6A18C",
"h. c #BCA48C",
"j. c #BBA186",
"k. c #ABA29B",
"l. c #B6A79B",
"z. c #8999A7",
"x. c #949CA5",
"c. c #A19FA5",
"v. c #9AA4AC",
"b. c #98A7B3",
"n. c #A5ABAD",
"m. c #A6A6A7",
"M. c #B6AAA4",
"N. c #BAB2A9",
"B. c #A5ADB3",
"V. c #ACB2B5",
"C. c #A7B3BD",
"Z. c #B5B2B2",
"A. c #B4B3BC",
"S. c #C49F82",
"D. c #CA9E81",
"F. c #C5A482",
"G. c #CBA385",
"H. c #CBAA84",
"J. c #CCAD8B",
"K. c #C6A78A",
"L. c #D2AA8B",
"P. c #CFB18C",
"I. c #D1B18E",
"U. c #DCBC8C",
"Y. c #C4AD93",
"T. c #D5AA93",
"R. c #CAB297",
"E. c #D4B492",
"W. c #D9B995",
"Q. c #DCBD9B",
"!. c #D8B699",
"~. c #E6BA86",
"^. c #F2BE83",
"/. c #D4BEA6",
"(. c #C4B8AC",
"). c #E0BAA1",
"_. c #DFC19F",
"`. c #ECC58B",
"'. c #F4C385",
"]. c #F5C98E",
"[. c #F6C68B",
"{. c #E2C29E",
"}. c #E3C395",
"|. c #F6CD94",
" X c #F6CE9C",
".X c #F8CC92",
"XX c #FBD499",
"oX c #DEC2A3",
"OX c #DBC4AD",
"+X c #C9C1BC",
"@X c #DECAB4",
"#X c #DCCBB8",
"$X c #E3C5A4",
"%X c #E5C8A7",
"&X c #E6CAAA",
"*X c #EACDAD",
"=X c #E8CAA6",
"-X c #EED0AF",
";X c #F8D4A4",
":X c #EBCEB2",
">X c #E3CCB3",
",X c #EDD2B3",
"<X c #E9D2BA",
"1X c #F1D5B6",
"2X c #F2D7B9",
"3X c #F4D9BA",
"4X c #F7D9B0",
"5X c #ACBAC7",
"6X c #B4BDC9",
"7X c #BAC1C8",
"8X c #CAC9CA",
"9X c #D7D0CC",
"0X c #E8D7CA",
"qX c #F6DEC4",
"wX c None",
/* pixels */
"wXwXwXwXwXwXwXwXwXwXwXwXwXwXwXwXwXwXwXwXwXwXwXwXwXwXwXwXwXwXwXwXwXwXwXwXwXwXwXwXwXwXwXwXwXwXwXwXwXwX",
"wXwXwXwXwXwXwXwXwXwXwXwXwXwXwXwXwXwXwXwXwXwXwXwXwXwXwXwXwXwXwXwXwXwXwXwXwXwXwXwXwXwXwXwXwXwXwXwXwXwX",
"wXwXwXwXwXwXwXwXwXwXwXwXwXwXwXwXwXwXwXwXwXwXwXwXwXwXwXwXwXwXwXwXwXwXwXwXwXwXwXwXwXwXwXwXwXwXwXwXwXwX",
"wXwXwXwXwXwXwXwXwXwXwXwXwXwXwXwXwXwXwXwXwXwXwXwXwXwXwXwXwXwXwXwXwXwXwXwXwXwXwXwXwXwXwXwXwXwXwXwXwXwX",
"wXwXwXwXwXwXwXwXwXwXwXwXwXwXwXwXwXwXwXwXwXwXwXwXwXwXwXwXwXwXwXwXwXwXwXwXwXwXwXwXwXwXwXwXwXwXwXwXwXwX",
"wXwXwXwXwXwXwXwXwXwXwXwXwXwXwXwXwXwXwXwXwXwXwXwX5.o.8 wXwXwXD H d wXwXwXwXwXwXwXwXwXwXwXwXwXwXwXwXwX",
"wXwXwXwXwXwXwXwXwXwXwXwXwXwXwXwXwXwXwXwXwX].'.e.*.G r wXe 8 G %.a wXwXwXwXwXwXwXwXwXwXwXwXwXwXwXwXwX",
"wXwXwXwXwXwXwXwXwXwXwXwXwXwXwXwXwXwX`.|.XXXXe.&.%.a < 3 f +.&.$.a wXwXwXwXwXwXwXwXwXwXwXwXwXwXwXwXwX",
"wXwXwXwXwXwXwXwXwXwXwXwXwXwXwXwXwX].XXXX].e.:.F 4 8 J >.w.w.q.$.G wXd wXwXwXwXwXwXwXwXwXwXwXwXwXwXwX",
"wXwXwXwXwXwXwXwXwXwXwXwXwXwX8 =.].XX|.|.'.&.D d :.w.'.[..X X8...| 9 a F wXwXwXwXwXwXwXwXwXwXwXwXwXwX",
"wXwXwXwXwXwXwXwXwXwXwXwXwX| a 9.'.'.|..X,.p #.].|.|.].;X;Xq.:.+.+.f t o.wXwXwXwXwXwXwXwXwXwXwXwXwXwX",
"wXwXwXwXwXwXwXwXwXwXwXwX+.%.D 5.7.e. X9.| @..X X|.].;XXXw.5.>.:.-.d t o.F wXwXwXwXwXwXwXwXwXwXwXwXwX",
"wXwXwXwXwXwXwXwXwXwXwXwX+.F s @.#.U.^.:.d 8..X X[.;X;Xw.7.7.5.5.:.s d #.$.q wXwXwXwXwXwXwXwXwXwXwXwX",
"wXwXwXwXwXwXwXwXwXwXwXD &. .q J J ,.2.$.s 4.[.].^.4X^.7.7.5.5.5.-.f X.:.:.q r G wXwXwXwXwXwXwXwXwXwX",
"wXwXwXwXwXwXwXwXwXwXwXd :.@.2 9 r K =.$.f %.~.0.^.=X8.5.5.5.5.5.#.w $.7.0.0 2 | wXwXwXwXwXwXwXwXwXwX",
"wXwXwXwXwXwXwXwXwXwXwXd >.1.r > ; ; , 8 3 < =.-.>.0.-.:.-.5.>.5. .d #.0.~.u q o.wXwXwXwXwXwXwXwXwXwX",
"wXwXwXwXwXwXwXwXwXwXwXD ,.1.D 6 n N T T L 7 ; : 4 J ..$.&.:.>.#.f +.:.~.~.e D &.D wXwXwXwXwXwXwXwXwX",
"wXwXwXwXwXwXwXwXwXwXwXJ &.=.M <.E.Q.$X=X*X%XR.[ W l 7 u u 0 0 1 F 6.6.~.=.1 +.:.| wXwXwXwXwXwXwXwXwX",
"wXwXwXwXwXwXwXwXwXwXwX .&.L ' P.E.Q.$X=X*X,X3X3X2X,X&XOXQ.R.J.{ L f  .P , u ,.>.o.wXwXwXwXwXwXwXwXwX",
"wXwXwXwXwXwXwXwXwXwXwX .| L <.P.W.{.%X*X-X,X2X2X2X3X3X3X3X1X,X*XQ.j.n ; 2 =.2.>.o.w wXwXwXwXwXwXwXwX",
"wXwXwXwXwXwXwXwXwXwXwX .K ! F.P.W.{.%X*X,X,X2X2X3X2X3X2X1X,X,X&X$X_.W.` f 2.2.:...w wXwXwXwXwXwXwXwX",
"wXwXwXwXwXwXwXwXwXwXwXJ K [ F.I.W.Q.$X&X-X,X2X3X3X3X3X2X1X1X:X&X$XQ.I.I.R O.:.:.F q wXwXwXwXwXwXwXwX",
"wXwXwXwXwXwXwXwXwXwXwXd P } H.P.W.Q.$X%X*X,X,X2X2X2X2X2X1X,X*X&X{.W.I.J.` J :.-.a , wXwXwXwXwXwXwXwX",
"wXwXwXwXwXwXwXwXwXwXwXw P } H.U.}.}.Q._.%X*X,X,X1X2X2X2X,X,X*X%X_.W.I.F.` K :.@.4 wXwXwXwXwXwXwXwXwX",
"wXwXwXwXwXwXwXwXwXwXwXx ( h.P.U.U.}.}._._.oX*X,X,X1X,X,X,X,X*X$X_.E.H.<.} I :.J < wXwXwXwXwXwXwXwXwX",
"wXwXwXwXwXwXwXwXwXwXwXz.x.v.B.V.N.R.<.1.P._.oX&X*X-X:X,X:X*X&X$X_.I.H.} ` I #.0 > wXwXwXwXwXwXwXwXwX",
"wXwXwXwXwXwXwXwXwXwXu.m.F.Y.R.Y.V.V.V.h.<.P._._.*X*X-X,X-X*X%X{.W.P.<.} ~ @. .2 > wXwXwXwXwXwXwXwXwX",
"wXwXwXwXwXwXwXwXwXwXy.d.K.( V * * Y f.b.k.H.U.}.Q.$X&X#X@X@X@XoX_.P.1.} ! K w 2 > wXwXwXwXwXwXwXwXwX",
"wXwXwXwXwXwXwXwXwXwXb.g.[ - = v.p.X * L z.n.N.N.l.v.v.n.n.V.V.V.B.n.g.~ Q M 2 6 wXwXwXwXwXwXwXwXwXwX",
"wXwXwXwXwXwXwXwXwXwXB.g.} +X7X= -   r.U a.c.h.n.z.U m b L L ! } g.k.v.x.E M 2 > wXwXwXwXwXwXwXwXwXwX",
"wXwXwXwXwXwXwXwXwXwXp.Z.I.OXN.=   + v.7Xz.} 1.l.p.! [ j.F.h.[ ( ) } j.i.z.6 9 > wXwXwXwXwXwXwXwXwXwX",
"wXwXwXwXwXwXwXwXwXwXx b.+X_.oXOXOX+X#X7Xg.P._.l.v.R W ( } h.Y.R.K.j.g.z.U i : wXwXwXwXwXwXwXwXwXwXwX",
"wXwXwXwXwXwXwXwXwXwXM ] b.8X,X:X,X0X6Xl.H.&X1XQ.b.R.j.h.d.d.s.d.Y.R.(.z.N j 7 wXwXwXwXwXwXwXwXwXwXwX",
"wXwXwXwXwXwXwXwXwXwXC 1.' c.6X8X(.5XN.L.E.W.$X{.n.+X,X>X>X:X<XOX/.>X7Xa.M z <.) wXwXwXwXwXwXwXwXwXwX",
"wXwXwXwXwXwXwXwXwXwXwX;.G.;.d.l.M.Y.L.E.I.$XI._.Y.C.<X&X<XqXqXqX0X8Xc.T b b ) E wXwXwXwXwXwXwXwXwXwX",
"wXwXwXwXwXwXwXwXwXwXwX/ D.T.T.G.G.E.%XJ.} 1XI.H.oXk.6X0X0X0X9X7XC.k.;.T j z ~ wXwXwXwXwXwXwXwXwXwXwX",
"wXwXwXwXwXwXwXwXwXwXwXA D.T.T.).).:X%X!.m b n H.&XE.l.Z.A.A.Z.l.<.<.' m k x B wXwXwXwXwXwXwXwXwXwXwX",
"wXwXwXwXwXwXwXwXwXwXwXb / D.T.T.Q.{.$X$XoXK.J.).=X/.J.D.D.D.D.D.G.<.E k x B wXwXwXwXwXwXwXwXwXwXwXwX",
"wXwXwXwXwXwXwXwXwXwXwXwXT _ G.T.J.{ K.E.*X3XqX4X=X$XI.d.S.G.T.T.L.;.n 5 j wXwXwXwXwXwXwXwXwXwXwXwXwX",
"wXwXwXwXwXwXwXwXwXwXwXwXj R ;.L.Q.] . & c Z S ] ] ] b n _ S.D.D./ N h wXwXwXwXwXwXwXwXwXwXwXwXwXwXwX",
"wXwXwXwXwXwXwXwXwXwXwXwXwXn E F.Q.R.& O @ o o X     & E.H.F.;./ A j wXwXwXwXwXwXwXwXwXwXwXwXwXwXwXwX",
"wXwXwXwXwXwXwXwXwXwXwXwXwXwXN ) P.I.d.Z v g # @ % c !.,XE.;./ N j wXwXwXwXwXwXwXwXwXwXwXwXwXwXwXwXwX",
"wXwXwXwXwXwXwXwXwXwXwXwXwXwXh T ;.P.F.^ t.S S Z S F.$XQ.} E m k wXwXwXwXwXwXwXwXwXwXwXwXwXwXwXwXwXwX",
"wXwXwXwXwXwXwXwXwXwXwXwXwXwXwXk E ' F.{ ;./ S / { E.I.` R n h wXwXwXwXwXwXwXwXwXwXwXwXwXwXwXwXwXwXwX",
"wXwXwXwXwXwXwXwXwXwXwXwXwXwXwXwXwXL ) ' } ` ` ` { { E n k wXwXwXwXwXwXwXwXwXwXwXwXwXwXwXwXwXwXwXwXwX",
"wXwXwXwXwXwXwXwXwXwXwXwXwXwXwXwXwXwXb R T E Q R m z h wXwXwXwXwXwXwXwXwXwXwXwXwXwXwXwXwXwXwXwXwXwXwX",
"wXwXwXwXwXwXwXwXwXwXwXwXwXwXwXwXwXwXwXwXz z j wXwXwXwXwXwXwXwXwXwXwXwXwXwXwXwXwXwXwXwXwXwXwXwXwXwXwX",
"wXwXwXwXwXwXwXwXwXwXwXwXwXwXwXwXwXwXwXwXwXwXwXwXwXwXwXwXwXwXwXwXwXwXwXwXwXwXwXwXwXwXwXwXwXwXwXwXwXwX",
"wXwXwXwXwXwXwXwXwXwXwXwXwXwXwXwXwXwXwXwXwXwXwXwXwXwXwXwXwXwXwXwXwXwXwXwXwXwXwXwXwXwXwXwXwXwXwXwXwXwX",
"wXwXwXwXwXwXwXwXwXwXwXwXwXwXwXwXwXwXwXwXwXwXwXwXwXwXwXwXwXwXwXwXwXwXwXwXwXwXwXwXwXwXwXwXwXwXwXwXwXwX"
};
