/* XPM */
static char *result[] = {
/* columns rows colors chars-per-pixel */
"50 50 26 1 ",
"  c #876253",
". c #8C6556",
"X c #8D6759",
"o c #8E6A5C",
"O c #90675A",
"+ c #936C5E",
"@ c #986D5E",
"# c #96715F",
"$ c #8F6D61",
"% c #946E61",
"& c #986F62",
"* c #967163",
"= c #9A7365",
"- c #9E7867",
"; c #977468",
": c #9D7669",
"> c #9D796B",
", c #9F7C70",
"< c #A0776A",
"1 c #A27B6D",
"2 c #A57E71",
"3 c #A87F71",
"4 c #A6806F",
"5 c #A68172",
"6 c #A98173",
"7 c #AC8478",
/* pixels */
";>,,;;,,;;;;5;55$;;><::&&&:<<<<<1113233222,7733333",
",,,,,;;;5;55;5554555311::<<2221213112122<<<23332<2",
"2,5,,,,,;;;;55;51>>4-<112121<121111<1212<1,2<<<<<<",
">>,5,,,;;;5;5;;5411><<<<1313311231131<<<22<<3<<<;<",
"5;;,;>>,;4;5;***=::<:<<:<233322213111133333333321<",
",>,,;,,;555;4444:::-<:<<<<111<<=::<111<-<<<<22<<2<",
";;;;**;;;;;;44;*>>1-:<<13233111<163331<<<3222<2<<<",
"4;>,>>,>;$5;55;41111<<<121111<1<111<1<132<<222<2<<",
";;;;$5;;5;5$4$;4=--<<<=<<1112331<-11113111114;4;:2",
">>>>;55;;545$o#;##@=<<<1222133321<<113667765544533",
">>>>5$45554;44;4>-<111<3332112111<11133111->4;4;21",
";;;;;5$;$$5$$444-=-=<<<:<1<<<<133111136654554>;422",
";>;555555;544444361<<:=<:11<<<111-:1-44-1441$44421",
";;;;;;$;;$$$4$4$11<#:11<<3311<134>13144>4441444423",
"45,5555;5$544$44@===&&&::<<::<11441>-444>:=-$4$412",
"4,;;;;;;$54;$4$$@@=<:&:<:11<1213>:=::>4::==-44$4<<",
";$;4>;;$*==;>--=-<<<===<<11131332122;14;>>>>444511",
">4>;;;;;*;>=*-=<=1<<<==<=<11>1:;<;12>2>>44>>$4$511",
";;;$*$$$=;***#*=<<<<<====311>,>:>>25555554>444$4>4",
">>$;>4>>>->-====##<#&*@*==@*;:::>>>;$=>>;;*;4$44>4",
";;;$*$;,>;::-*@*##<<=<--<==:23266311111144$44$$4=*",
";;;;;;;;;;--=*@@@=###@##@&:<=::><<:15>>-;;44$44$=-",
"$$;;;;$$o#-:----<1<=<=<<<=:*=:&&@*--=:**#4$$4444->",
"$$oooooooo-:<*-=1<<<=<<<-<<&:<:*:::14><-4$444$$4->",
"$$+%%%$%****-*=*>::>:1>>*<<:&*<:=@&&:---:-==>=-*=>",
"o$%oXooo&*:***&%&&===:*=-::&&::<<:<-:-=<>1>>11>--1",
"*=*;*%%+%&*==-:-****&&%%&;=&&=&&@<<<:<<<->1:>-1115",
"+*=;=&&&*::*&*:;-;**;;*;=:>><<<:<===&:&&+**-*+*:=>",
"*&=;;==;*:&&oo*#$$oo$***=**+&:*=&&*=&&===1>1--:<=-",
"%=%&&&&;**&&*#*#=;***-==;**&+@=:&&&:&@==-1--+@*-->",
"%$$$%$$%+%+*+++o#**#****&++*=*=<::-=@:<:=<<<<:::-<",
"*%%&&%%%*=--****#:*===*#+o@+@+@@%@&&@O@:*:<*&:<::-",
"%%%$%%$$*;;:;:-:=:***:=*:=#*&++*:<=&@&&&&=<====@&<",
";&%$%$%%%&%%**&&==#=***###**@@&*13<:=:-:<111<<1<<1",
";%%%%%;;;*&%****=;>>>1*:=*=-&=&:11<<=<::<::=*@=:-<",
"%%%%%&&**%;;o$+$#**===###++*&:&-331<-<<111:<<<1<<1",
"%$$%$%;>;;;;=;;**===-<=-*-<*@@&*<=<==<&&=&=<1<<-=<",
"%$%%$$%*;*;*$*$$$*o+=*+*:<1<*-*&-=<=*@&@=<<::@@:<<",
";;;;&%;***;$*$o$o$+*:@#*@*:&&@@@++&:@*<:=::&=<*:<1",
"X$X$$$%$**$oooooo++*+***&+&===&+&<1<<11<<<<=&&&:<<",
"$$o$$*%*$$**$$ooXo.ooo+#+@=++=@+===@&:<:<1-&:<<11<",
"$$$*$oo+ooo$$*$oo****-++*<=*@#=-<*&=&&=::::&::<<==",
"ooo$$oooooooo.o.X+o###.o++&@*#@@&-=@&=*:&:<<:<<:::",
"$$$$oo**=*=*o*oo+*o**$##+@++++O@<:*:&@-==<:@@==&+*",
"$o$*oo$oo+==**#*===;=*#=*+&+OOO+=@:<*=<-11-<<:&=:1",
";$#ooo**#*#@**=====#=#*@@+OX.OOOO+&@+@@@*#@=@+&&+*",
"X.o. o... Xo++##+=*o+#++O+.X++=@=*+@###@#=@@<@+&+&",
"oooooo$o..XXo++++++o#++O..+OO+@@@@@*@#=@<=+=<*:*=-",
"ooo oo##oo##+#@@++@+@+O++@#####<*=<#<=====#==*:*##",
"     .X.XX..+oXXXOOOOO.OO@##@-#@#=#<#==*==-<#====="
};
